<svg xmlns="http://www.w3.org/2000/svg" version="1.1" xmlns:xlink="http://www.w3.org/1999/xlink" xmlns:svgjs="http://svgjs.dev/svgjs" width="1000" height="1000" viewBox="0 0 1000 1000"><rect width="1000" height="1000" fill="#ffffff"></rect><g transform="matrix(0.7,0,0,0.7,149.57575757575756,404.9354503352997)"><svg viewBox="0 0 396 108" data-background-color="#ffffff" preserveAspectRatio="xMidYMid meet" height="272" width="1000" xmlns="http://www.w3.org/2000/svg" xmlns:xlink="http://www.w3.org/1999/xlink"><defs></defs><g id="tight-bounds" transform="matrix(1,0,0,1,0.2400000000000091,-0.07683107254393917)"><svg viewBox="0 0 395.52 108.15366214508785" height="108.15366214508785" width="395.52"><g><svg viewBox="0 0 426.47186750018795 116.61735" height="108.15366214508785" width="395.52"><g><svg viewBox="0 0 426.47186750018795 116.61735" height="116.61735" width="426.47186750018795"><g><svg viewBox="0 0 426.47186750018795 116.61735" height="116.61735" width="426.47186750018795"><g><svg viewBox="0 0 426.47186750018795 116.61735" height="116.61735" width="426.47186750018795"><g><svg><g></g><g></g></svg></g><g><svg><g></g><g><svg></svg></g></svg></g><g id="text-0"><svg viewBox="0 0 426.47186750018795 116.61735" height="116.61735" width="426.47186750018795"><g><svg xmlns="http://www.w3.org/2000/svg" xmlns:xlink="http://www.w3.org/1999/xlink" version="1.1" x="0" y="0" viewBox="0.001507172750698664 0 156.99592867200175 95" enable-background="new 0 0 157 95" xml:space="preserve" height="116.61735" width="192.72051750018804" class="icon-fi-0" data-fill-palette-color="accent" id="fi-0"><g fill="#088178" data-fill-palette-color="accent"><path d="M155.8 79.9c-0.9-1.2-23.4-28.7-72.4-45v-4.7c0-5.7 11.1-7.2 11.1-17.7C94.6 4.3 86.9 0 79.8 0c-8.6 0-13.3 5.3-13.3 5.3-1.2 1.2-2.6 4.1-0.7 6.9 2 2.8 5.8 1.5 6.8 0.6 0 0 3-2.7 6.1-2.7 2.4 0 4.6 1.6 4.6 3.8 0 5.4-9.9 6.9-9.9 15.5v5.6C24.4 51.2 2 78.7 1.1 79.9c-0.9 1.1-1.3 2.6-1 4 0.3 1.4 1.2 2.6 2.5 3.3C13.2 93 51.1 95 80.2 95c13.6 0 59-0.5 74.1-7.6 1.4-0.6 2.2-1.9 2.6-3.3C157.2 82.7 156.8 81.1 155.8 79.9zM80.2 85.2c-28 0-53.9-1.8-66.5-4.5 8.9-8.7 30-26.1 64.8-37.1 34.8 11.1 55.8 28.4 64.8 37.1C130.9 83.5 107.6 85.2 80.2 85.2z" fill="#000000" data-fill-palette-color="accent"></path></g></svg></g><g transform="matrix(1,0,0,1,211.07561750018803,7.105427357601002e-15)"><svg width="215.39624999999995" viewBox="2.4 -38.8 88.74 48.05" height="116.61734999999999" data-palette-color="#152232"><path d="M8.6-13.15L8.6-13.15Q8.6-9.15 10.5-6.88 12.4-4.6 15.75-4.6L15.75-4.6Q17.2-4.6 18.23-4.73 19.25-4.85 19.9-5L19.9-5 19.9-20Q19.1-20.55 17.78-21.03 16.45-21.5 14.95-21.5L14.95-21.5Q11.65-21.5 10.13-19.25 8.6-17 8.6-13.15ZM25.95-38.8L25.95-0.8Q24.15-0.25 21.43 0.2 18.7 0.65 15.7 0.65L15.7 0.65Q12.6 0.65 10.15-0.3 7.7-1.25 5.98-3.03 4.25-4.8 3.33-7.33 2.4-9.85 2.4-13L2.4-13Q2.4-16.1 3.18-18.63 3.95-21.15 5.45-22.95 6.95-24.75 9.1-25.73 11.25-26.7 14.05-26.7L14.05-26.7Q15.95-26.7 17.4-26.25 18.85-25.8 19.9-25.25L19.9-25.25 19.9-37.8 25.95-38.8ZM49.6-25.8L48.55-20.7Q47.8-20.95 46.47-21.23 45.15-21.5 43.4-21.5L43.4-21.5Q42.4-21.5 41.27-21.3 40.15-21.1 39.7-20.95L39.7-20.95 39.7 0 33.65 0 33.65-24.9Q35.4-25.55 38.02-26.13 40.65-26.7 43.85-26.7L43.85-26.7Q44.45-26.7 45.25-26.63 46.05-26.55 46.85-26.43 47.65-26.3 48.4-26.13 49.15-25.95 49.6-25.8L49.6-25.8ZM59.9-26.15L59.9 0 53.85 0 53.85-26.15 59.9-26.15ZM60.55-33.8L60.55-33.8Q60.55-32.1 59.45-31.1 58.35-30.1 56.85-30.1L56.85-30.1Q55.3-30.1 54.2-31.1 53.1-32.1 53.1-33.8L53.1-33.8Q53.1-35.55 54.2-36.55 55.3-37.55 56.85-37.55L56.85-37.55Q58.35-37.55 59.45-36.55 60.55-35.55 60.55-33.8ZM84.94-12.95L84.94-12.95Q84.94-17 83.12-19.25 81.29-21.5 77.24-21.5L77.24-21.5Q76.39-21.5 75.47-21.43 74.54-21.35 73.64-21.1L73.64-21.1 73.64-6.15Q74.44-5.6 75.77-5.13 77.09-4.65 78.59-4.65L78.59-4.65Q81.89-4.65 83.42-6.9 84.94-9.15 84.94-12.95ZM91.14-13.05L91.14-13.05Q91.14-10.05 90.37-7.55 89.59-5.05 88.14-3.25 86.69-1.45 84.52-0.45 82.34 0.55 79.59 0.55L79.59 0.55Q77.74 0.55 76.19 0.1 74.64-0.35 73.64-0.9L73.64-0.9 73.64 9.25 67.59 9.25 67.59-25.3Q69.44-25.8 72.14-26.25 74.84-26.7 77.84-26.7L77.84-26.7Q80.94-26.7 83.39-25.75 85.84-24.8 87.57-23.03 89.29-21.25 90.22-18.73 91.14-16.2 91.14-13.05Z" opacity="1" transform="matrix(1,0,0,1,0,0)" fill="#000000" class="undefined-text-0" data-fill-palette-color="primary"></path></svg></g></svg></g></svg></g></svg></g></svg></g></svg></g></svg><rect width="395.52" height="108.15366214508785" fill="none" stroke="none" visibility="hidden"></rect></g></svg></g></svg>